<svg xmlns="http://www.w3.org/2000/svg" viewBox="0 0 1200 900" role="img" aria-labelledby="title desc">
  <title>袋鼠盃 圖片 2</title>
  <desc>袋鼠盃 圖片 2 佔位圖</desc>
  <defs>
    <linearGradient id="bg" x1="0" y1="0" x2="1" y2="1">
      <stop offset="0%" stop-color="#FFF9F0"/>
      <stop offset="100%" stop-color="#EEF5FF"/>
    </linearGradient>
    <linearGradient id="accent" x1="0" y1="0" x2="1" y2="1">
      <stop offset="0%" stop-color="#C45519"/>
      <stop offset="100%" stop-color="#B63D3D"/>
    </linearGradient>
  </defs>
  <rect width="1200" height="900" fill="url(#bg)"/>
  <circle cx="1030" cy="170" r="180" fill="#C45519" opacity="0.12"/>
  <circle cx="170" cy="740" r="210" fill="#B63D3D" opacity="0.1"/>
  <rect x="104" y="118" width="992" height="664" rx="42" fill="#FFFFFF" opacity="0.92"/>
  <rect x="154" y="170" width="210" height="16" rx="8" fill="#C45519" opacity="0.25"/>
  <rect x="154" y="214" width="312" height="64" rx="26" fill="url(#accent)" opacity="0.94"/>
  <text x="204" y="255" font-size="34" font-family="Microsoft JhengHei, Noto Sans TC, sans-serif" fill="#FFFFFF" font-weight="700">PLACEHOLDER</text>
  <text x="154" y="380" font-size="72" font-family="Microsoft JhengHei, Noto Sans TC, sans-serif" fill="#1D2B40" font-weight="800">袋鼠盃</text>
  <text x="154" y="462" font-size="42" font-family="Microsoft JhengHei, Noto Sans TC, sans-serif" fill="#5B6C85">圖片 2</text>
  <rect x="154" y="538" width="468" height="122" rx="28" fill="#C45519" opacity="0.08"/>
  <text x="192" y="606" font-size="32" font-family="Microsoft JhengHei, Noto Sans TC, sans-serif" fill="#1D2B40" font-weight="700">將實際圖片直接替換此檔案</text>
  <text x="192" y="648" font-size="24" font-family="Microsoft JhengHei, Noto Sans TC, sans-serif" fill="#607089">或在 images.json 改成新的 img/ 檔名</text>
  <rect x="796" y="294" width="212" height="212" rx="38" fill="url(#accent)" opacity="0.88"/>
  <path d="M872 356h60c17 0 30 13 30 30v28c0 17-13 30-30 30h-60c-17 0-30-13-30-30v-28c0-17 13-30 30-30zm0 24c-3 0-6 3-6 6v28c0 3 3 6 6 6h60c3 0 6-3 6-6v-28c0-3-3-6-6-6h-60zm14 118h110v28H886z" fill="#FFFFFF"/>
  <text x="154" y="734" font-size="22" font-family="Microsoft JhengHei, Noto Sans TC, sans-serif" fill="#607089">黃煥傑的學習歷程 • img/kangaroo-math-2.svg</text>
</svg>
